<svg width="150" height="80" fill="none" xmlns="http://www.w3.org/2000/svg"><g clip-path="url(#a)"><g filter="url(#b)"><path fill-rule="evenodd" clip-rule="evenodd" d="M108.4 40c0-7.5-1.277-30-33.2-30C43.277 10 42 32.5 42 40s1.277 30 33.2 30c31.923 0 33.2-22.5 33.2-30Z" fill="url(#c)"/></g><g opacity=".8" filter="url(#d)"><path fill-rule="evenodd" clip-rule="evenodd" d="M96 74c0-.5-.808-2-21-2s-21 1.5-21 2 .808 2 21 2 21-1.5 21-2Z" fill="#051C4A" fill-opacity=".1"/></g><g filter="url(#e)"><path fill-rule="evenodd" clip-rule="evenodd" d="M61.565 27.565a3 3 0 0 0 0 4.243L70.757 41l-9.192 9.192a3 3 0 1 0 4.243 4.243L75 45.243l9.192 9.192a3 3 0 0 0 4.243-4.243L79.243 41l9.192-9.192a3 3 0 0 0-4.243-4.243L75 36.757l-9.192-9.192a3 3 0 0 0-4.243 0Z" fill="#FCFDFD"/></g></g><defs><filter id="b" x="41" y="8" width="69.4" height="63" filterUnits="userSpaceOnUse" color-interpolation-filters="sRGB"><feFlood flood-opacity="0" result="BackgroundImageFix"/><feBlend in="SourceGraphic" in2="BackgroundImageFix" result="shape"/><feColorMatrix in="SourceAlpha" values="0 0 0 0 0 0 0 0 0 0 0 0 0 0 0 0 0 0 127 0" result="hardAlpha"/><feOffset dx="-2" dy="4"/><feGaussianBlur stdDeviation=".5"/><feComposite in2="hardAlpha" operator="arithmetic" k2="-1" k3="1"/><feColorMatrix values="0 0 0 0 1 0 0 0 0 1 0 0 0 0 1 0 0 0 0.1 0"/><feBlend in2="shape" result="effect1_innerShadow_9824_75555"/><feColorMatrix in="SourceAlpha" values="0 0 0 0 0 0 0 0 0 0 0 0 0 0 0 0 0 0 127 0" result="hardAlpha"/><feOffset dx="2" dy="-2"/><feGaussianBlur stdDeviation="2"/><feComposite in2="hardAlpha" operator="arithmetic" k2="-1" k3="1"/><feColorMatrix values="0 0 0 0 0 0 0 0 0 0 0 0 0 0 0 0 0 0 0.1 0"/><feBlend in2="effect1_innerShadow_9824_75555" result="effect2_innerShadow_9824_75555"/></filter><filter id="d" x="29" y="51" width="92" height="54" filterUnits="userSpaceOnUse" color-interpolation-filters="sRGB"><feFlood flood-opacity="0" result="BackgroundImageFix"/><feColorMatrix in="SourceAlpha" values="0 0 0 0 0 0 0 0 0 0 0 0 0 0 0 0 0 0 127 0" result="hardAlpha"/><feOffset dy="4"/><feGaussianBlur stdDeviation="12.5"/><feColorMatrix values="0 0 0 0 0.0196078 0 0 0 0 0.109804 0 0 0 0 0.290196 0 0 0 0.2 0"/><feBlend in2="BackgroundImageFix" result="effect1_dropShadow_9824_75555"/><feBlend in="SourceGraphic" in2="effect1_dropShadow_9824_75555" result="shape"/><feGaussianBlur stdDeviation="2" result="effect2_foregroundBlur_9824_75555"/></filter><filter id="e" x="56.686" y="24.686" width="36.627" height="36.627" filterUnits="userSpaceOnUse" color-interpolation-filters="sRGB"><feFlood flood-opacity="0" result="BackgroundImageFix"/><feColorMatrix in="SourceAlpha" values="0 0 0 0 0 0 0 0 0 0 0 0 0 0 0 0 0 0 127 0" result="hardAlpha"/><feOffset dy="2"/><feGaussianBlur stdDeviation="2"/><feColorMatrix values="0 0 0 0 0.466667 0 0 0 0 0.505882 0 0 0 0 0.545098 0 0 0 0.2 0"/><feBlend mode="multiply" in2="BackgroundImageFix" result="effect1_dropShadow_9824_75555"/><feColorMatrix in="SourceAlpha" values="0 0 0 0 0 0 0 0 0 0 0 0 0 0 0 0 0 0 127 0" result="hardAlpha"/><feOffset dx="-1" dy="1"/><feGaussianBlur stdDeviation="1"/><feColorMatrix values="0 0 0 0 0.468507 0 0 0 0 0.50717 0 0 0 0 0.545833 0 0 0 0.1 0"/><feBlend mode="multiply" in2="effect1_dropShadow_9824_75555" result="effect2_dropShadow_9824_75555"/><feBlend in="SourceGraphic" in2="effect2_dropShadow_9824_75555" result="shape"/><feColorMatrix in="SourceAlpha" values="0 0 0 0 0 0 0 0 0 0 0 0 0 0 0 0 0 0 127 0" result="hardAlpha"/><feOffset dx="1" dy="1"/><feComposite in2="hardAlpha" operator="arithmetic" k2="-1" k3="1"/><feColorMatrix values="0 0 0 0 1 0 0 0 0 1 0 0 0 0 1 0 0 0 0.45 0"/><feBlend in2="shape" result="effect3_innerShadow_9824_75555"/><feColorMatrix in="SourceAlpha" values="0 0 0 0 0 0 0 0 0 0 0 0 0 0 0 0 0 0 127 0" result="hardAlpha"/><feOffset dx="1" dy="-1"/><feGaussianBlur stdDeviation="1"/><feComposite in2="hardAlpha" operator="arithmetic" k2="-1" k3="1"/><feColorMatrix values="0 0 0 0 0.698039 0 0 0 0 0.741176 0 0 0 0 0.784314 0 0 0 0.7 0"/><feBlend in2="effect3_innerShadow_9824_75555" result="effect4_innerShadow_9824_75555"/></filter><linearGradient id="c" x1="93.556" y1="13.209" x2="59.63" y2="67.439" gradientUnits="userSpaceOnUse"><stop stop-color="#ED6F5E"/><stop offset="1" stop-color="#D54139"/></linearGradient><clipPath id="a"><path fill="#fff" d="M0 0h150v80H0z"/></clipPath></defs></svg>